<svg width="20" height="20" viewBox="0 0 20 20" fill="none" xmlns="http://www.w3.org/2000/svg">
<path fill-rule="evenodd" clip-rule="evenodd" d="M10 1.20312C6.75868 1.20312 4.13105 3.83075 4.13105 7.07209V10.3477C2.99279 11.5439 2.52919 12.9275 2.33879 13.8512C2.10626 14.9791 3.03794 15.8031 4.00002 15.8031H6.71347C6.86504 17.4851 8.27861 18.8031 10 18.8031C11.7214 18.8031 13.135 17.4851 13.2866 15.8031H16C16.9621 15.8031 17.8938 14.9791 17.6613 13.8512C17.4709 12.9275 17.0072 11.5439 15.869 10.3477V7.07209C15.869 3.83075 13.2414 1.20312 10 1.20312ZM11.6736 15.8031C11.5319 16.5989 10.8365 17.2031 10 17.2031C9.1635 17.2031 8.4681 16.5989 8.32641 15.8031H11.6736ZM16 14.2031C16.0537 14.2031 16.0835 14.1838 16.0942 14.1741C15.929 13.3727 15.52 12.2058 14.5197 11.2612C14.3597 11.1101 14.269 10.8997 14.269 10.6795V7.07209C14.269 4.71441 12.3577 2.80312 10 2.80312C7.64233 2.80312 5.73105 4.71441 5.73105 7.07209V10.6795C5.73105 10.8997 5.64036 11.1101 5.48032 11.2612C4.48003 12.2058 4.07108 13.3727 3.90585 14.1741C3.91655 14.1838 3.94633 14.2031 4.00002 14.2031H16Z" fill="#130817" fill-opacity="0.7"/>
</svg>
