<svg width="28" height="28" viewBox="0 0 28 28" fill="none" xmlns="http://www.w3.org/2000/svg">
<rect y="27.2323" width="0.632258" height="0.632258" fill="white"/>
<rect x="4.65137" y="27.2323" width="0.632258" height="0.632258" fill="white"/>
<rect x="9.16772" y="27.2323" width="0.632258" height="0.632258" fill="white"/>
<rect x="13.6836" y="27.2323" width="0.632258" height="0.632258" fill="white"/>
<rect x="18.2" y="27.2323" width="0.632258" height="0.632258" fill="white"/>
<rect x="22.7158" y="27.2323" width="0.632258" height="0.632258" fill="white"/>
<rect x="27.2323" y="27.2323" width="0.632258" height="0.632258" fill="white"/>
<rect y="22.7148" width="0.632258" height="0.632258" fill="white"/>
<rect x="4.65137" y="22.7148" width="0.632258" height="0.632258" fill="white"/>
<rect x="9.16797" y="22.7148" width="0.632258" height="0.632258" fill="white"/>
<rect x="13.5488" y="22.5801" width="0.903226" height="0.903226" fill="white"/>
<rect x="18.2002" y="22.7148" width="0.632258" height="0.632258" fill="white"/>
<rect x="22.7158" y="22.7148" width="0.632258" height="0.632258" fill="white"/>
<rect x="27.2324" y="22.7148" width="0.632258" height="0.632258" fill="white"/>
<rect y="18.1993" width="0.632258" height="0.632258" fill="white"/>
<rect x="4.65137" y="18.1993" width="0.632258" height="0.632258" fill="white"/>
<rect x="9.03223" y="18.0646" width="0.903226" height="0.903226" fill="white"/>
<rect x="13.5488" y="18.0646" width="0.903226" height="0.903226" fill="white"/>
<rect x="22.7158" y="18.1993" width="0.632258" height="0.632258" fill="white"/>
<rect x="18.0646" y="18.0646" width="0.903226" height="0.903226" fill="white"/>
<rect x="27.2324" y="18.1993" width="0.632258" height="0.632258" fill="white"/>
<rect y="13.6836" width="0.632258" height="0.632258" fill="white"/>
<rect x="13.5488" y="13.5488" width="0.903226" height="0.903226" fill="white"/>
<rect x="9.03223" y="13.5491" width="0.903226" height="0.903226" fill="white"/>
<rect x="4.5166" y="13.5488" width="0.903226" height="0.903226" fill="white"/>
<rect x="27.2324" y="13.6836" width="0.632258" height="0.632258" fill="white"/>
<rect x="22.5811" y="13.5488" width="0.903226" height="0.903226" fill="white"/>
<rect x="18.0646" y="13.5491" width="0.903226" height="0.903226" fill="white"/>
<rect x="13.6836" y="9.16797" width="0.632258" height="0.632258" fill="white"/>
<rect y="9.16797" width="0.632258" height="0.632258" fill="white"/>
<rect x="9.03223" y="9.0332" width="0.903226" height="0.903226" fill="white"/>
<rect x="4.5166" y="9.0332" width="0.903226" height="0.903226" fill="white"/>
<rect x="18.0646" y="9.0332" width="0.903226" height="0.903226" fill="white"/>
<rect x="27.2324" y="9.16797" width="0.632258" height="0.632258" fill="white"/>
<rect x="22.5811" y="9.0332" width="0.903226" height="0.903226" fill="white"/>
<rect y="4.65234" width="0.632258" height="0.632258" fill="white"/>
<rect x="4.5166" y="4.51953" width="0.903226" height="0.903226" fill="white"/>
<rect x="9.16797" y="4.65234" width="0.632258" height="0.632258" fill="white"/>
<rect x="13.6836" y="4.65234" width="0.632258" height="0.632258" fill="white"/>
<rect x="18.2002" y="4.65234" width="0.632258" height="0.632258" fill="white"/>
<rect x="22.5811" y="4.51562" width="0.903226" height="0.903226" fill="white"/>
<rect x="27.2324" y="4.65234" width="0.632258" height="0.632258" fill="white"/>
<rect width="0.632258" height="0.632258" fill="white"/>
<rect x="4.65137" width="0.632258" height="0.632258" fill="white"/>
<rect x="9.16772" width="0.632258" height="0.632258" fill="white"/>
<rect x="13.6836" width="0.632258" height="0.632258" fill="white"/>
<rect x="18.2" width="0.632258" height="0.632258" fill="white"/>
<rect x="22.7158" width="0.632258" height="0.632258" fill="white"/>
<rect x="27.2323" width="0.632258" height="0.632258" fill="white"/>
<circle cx="4.9678" cy="4.9678" r="0.903226" fill="white"/>
<circle cx="4.96768" cy="9.4833" r="0.903226" fill="white"/>
<circle cx="4.96768" cy="14.0009" r="0.903226" fill="white"/>
<circle cx="9.48352" cy="9.4845" r="1.12903" fill="white"/>
<circle cx="9.47486" cy="14" r="1.12903" fill="white"/>
<circle cx="9.48352" cy="18.5158" r="1.12903" fill="white"/>
<circle cx="14.0003" cy="13.9994" r="1.35484" fill="white"/>
<circle cx="18.5162" cy="9.48299" r="1.58065" fill="white"/>
<circle cx="23.032" cy="4.96856" r="1.80645" fill="white"/>
<circle cx="23.032" cy="9.48419" r="1.80645" fill="white"/>
<circle cx="23.0323" cy="14.0001" r="1.80645" fill="white"/>
<circle cx="18.5162" cy="14.0006" r="1.58065" fill="white"/>
<circle cx="18.5161" cy="18.5161" r="1.58065" fill="white"/>
<circle cx="14.0003" cy="18.5169" r="1.35484" fill="white"/>
<circle cx="14.0003" cy="23.0326" r="1.35484" fill="white"/>
</svg>
